<?xml version="1.0" encoding="UTF-8" standalone="no"?>
<!DOCTYPE svg PUBLIC "-//W3C//DTD SVG 1.1//EN"
 "http://www.w3.org/Graphics/SVG/1.1/DTD/svg11.dtd">
<!-- Generated by graphviz version 14.1.2 (0)
 -->
<!-- Title: PAPER01_Cohort_Flow Pages: 1 -->
<svg width="778pt" height="941pt"
 viewBox="0.00 0.00 778.00 941.00" xmlns="http://www.w3.org/2000/svg" xmlns:xlink="http://www.w3.org/1999/xlink">
<g id="graph0" class="graph" transform="scale(1 1) rotate(0) translate(18 923.24)">
<title>PAPER01_Cohort_Flow</title>
<polygon fill="white" stroke="none" points="-18,18 -18,-923.24 760.17,-923.24 760.17,18 -18,18"/>
<text xml:space="preserve" text-anchor="middle" x="371.09" y="-884.14" font-family="Helvetica,sans-Serif" font-size="18.00">Fear&#45;of&#45;Falling paper_01 analytic cohort derivation</text>
<text xml:space="preserve" text-anchor="middle" x="371.09" y="-862.39" font-family="Helvetica,sans-Serif" font-size="18.00">Primary branch: LONG | outcome: locomotor_capacity</text>
<!-- note_missing -->
<g id="node1" class="node">
<title>note_missing</title>
<polygon fill="#f9fafb" stroke="#e5e7eb" stroke-width="1.1" points="537.92,-853.74 0,-853.74 0,-714.46 543.92,-714.46 543.92,-847.74 537.92,-853.74"/>
<polyline fill="none" stroke="#e5e7eb" stroke-width="1.1" points="537.92,-853.74 537.92,-847.74"/>
<polyline fill="none" stroke="#e5e7eb" stroke-width="1.1" points="543.92,-847.74 537.92,-847.74"/>
<text xml:space="preserve" text-anchor="start" x="16.96" y="-830.7" font-family="Helvetica,sans-Serif" font-weight="bold" font-size="12.00" fill="#374151">Group x Time missingness</text>
<text xml:space="preserve" text-anchor="start" x="16.96" y="-809.45" font-family="Helvetica,sans-Serif" font-size="12.00" fill="#374151">FOF=0, time=0: n=144, outcome miss=16, age miss=0, sex miss=0, BMI miss=5</text>
<text xml:space="preserve" text-anchor="start" x="16.96" y="-789.2" font-family="Helvetica,sans-Serif" font-size="12.00" fill="#374151">FOF=0, time=12: n=144, outcome miss=73, age miss=0, sex miss=0, BMI miss=5</text>
<text xml:space="preserve" text-anchor="start" x="16.96" y="-768.95" font-family="Helvetica,sans-Serif" font-size="12.00" fill="#374151">FOF=1, time=0: n=328, outcome miss=53, age miss=0, sex miss=1, BMI miss=17</text>
<text xml:space="preserve" text-anchor="start" x="16.96" y="-748.7" font-family="Helvetica,sans-Serif" font-size="12.00" fill="#374151">FOF=1, time=12: n=328, outcome miss=142, age miss=0, sex miss=1, BMI miss=17</text>
<text xml:space="preserve" text-anchor="start" x="16.96" y="-730.35" font-family="Helvetica,sans-Serif" font-size="10.00" fill="#6b7280">FI22 optional sensitivity only; excluded for FI22 completeness if enabled: 4</text>
</g>
<!-- n1 -->
<g id="node2" class="node">
<title>n1</title>
<path fill="#eef2ff" stroke="#4b5563" stroke-width="1.1" d="M320.92,-674.46C320.92,-674.46 223,-674.46 223,-674.46 217,-674.46 211,-668.46 211,-662.46 211,-662.46 211,-626.43 211,-626.43 211,-620.43 217,-614.43 223,-614.43 223,-614.43 320.92,-614.43 320.92,-614.43 326.92,-614.43 332.92,-620.43 332.92,-626.43 332.92,-626.43 332.92,-662.46 332.92,-662.46 332.92,-668.46 326.92,-674.46 320.92,-674.46"/>
<text xml:space="preserve" text-anchor="middle" x="271.96" y="-654.42" font-family="Helvetica,sans-Serif" font-size="12.00">Input dataset</text>
<text xml:space="preserve" text-anchor="middle" x="271.96" y="-640.17" font-family="Helvetica,sans-Serif" font-size="12.00">Rows = 1070</text>
<text xml:space="preserve" text-anchor="middle" x="271.96" y="-625.92" font-family="Helvetica,sans-Serif" font-size="12.00">Unique id = 535</text>
</g>
<!-- note_missing&#45;&gt;n1 -->
<!-- e_id -->
<g id="node3" class="node">
<title>e_id</title>
<path fill="#fff1f2" stroke="#b91c1c" stroke-width="1.1" d="M484.17,-674.46C484.17,-674.46 369.75,-674.46 369.75,-674.46 363.75,-674.46 357.75,-668.46 357.75,-662.46 357.75,-662.46 357.75,-626.43 357.75,-626.43 357.75,-620.43 363.75,-614.43 369.75,-614.43 369.75,-614.43 484.17,-614.43 484.17,-614.43 490.17,-614.43 496.17,-620.43 496.17,-626.43 496.17,-626.43 496.17,-662.46 496.17,-662.46 496.17,-668.46 490.17,-674.46 484.17,-674.46"/>
<text xml:space="preserve" text-anchor="middle" x="426.96" y="-654.42" font-family="Helvetica,sans-Serif" font-size="12.00" fill="#7f1d1d">Excluded rows = 0</text>
<text xml:space="preserve" text-anchor="middle" x="426.96" y="-640.17" font-family="Helvetica,sans-Serif" font-size="12.00" fill="#7f1d1d">Missing or blank id</text>
<text xml:space="preserve" text-anchor="middle" x="426.96" y="-625.92" font-family="Helvetica,sans-Serif" font-size="12.00" fill="#7f1d1d">(0.0% of raw rows)</text>
</g>
<!-- n1&#45;&gt;e_id -->
<g id="edge8" class="edge">
<title>n1&#45;&gt;e_id</title>
<path fill="none" stroke="#374151" stroke-width="1.1" d="M333.22,-634C341.17,-634 349.37,-634 357.44,-634"/>
</g>
<!-- n1&#45;&gt;e_id -->
<!-- n2 -->
<g id="node4" class="node">
<title>n2</title>
<path fill="#eef2ff" stroke="#4b5563" stroke-width="1.1" d="M393.67,-567.3C393.67,-567.3 150.25,-567.3 150.25,-567.3 144.25,-567.3 138.25,-561.3 138.25,-555.3 138.25,-555.3 138.25,-533.52 138.25,-533.52 138.25,-527.52 144.25,-521.52 150.25,-521.52 150.25,-521.52 393.67,-521.52 393.67,-521.52 399.67,-521.52 405.67,-527.52 405.67,-533.52 405.67,-533.52 405.67,-555.3 405.67,-555.3 405.67,-561.3 399.67,-567.3 393.67,-567.3"/>
<text xml:space="preserve" text-anchor="middle" x="271.96" y="-547.26" font-family="Helvetica,sans-Serif" font-size="12.00">N = 535 participants with non&#45;missing id</text>
<text xml:space="preserve" text-anchor="middle" x="271.96" y="-533.01" font-family="Helvetica,sans-Serif" font-size="12.00">(50.0% of raw rows)</text>
</g>
<!-- n1&#45;&gt;n2 -->
<g id="edge1" class="edge">
<title>n1&#45;&gt;n2</title>
<path fill="none" stroke="#374151" stroke-width="1.1" d="M271.96,-613.89C271.96,-613.89 271.96,-576.97 271.96,-576.97"/>
<polygon fill="#374151" stroke="#374151" stroke-width="1.1" points="274.59,-576.97 271.96,-569.47 269.34,-576.97 274.59,-576.97"/>
</g>
<!-- e1 -->
<g id="node5" class="node">
<title>e1</title>
<path fill="#fff1f2" stroke="#b91c1c" stroke-width="1.1" d="M615.42,-574.43C615.42,-574.43 442.5,-574.43 442.5,-574.43 436.5,-574.43 430.5,-568.43 430.5,-562.43 430.5,-562.43 430.5,-526.4 430.5,-526.4 430.5,-520.4 436.5,-514.4 442.5,-514.4 442.5,-514.4 615.42,-514.4 615.42,-514.4 621.42,-514.4 627.42,-520.4 627.42,-526.4 627.42,-526.4 627.42,-562.43 627.42,-562.43 627.42,-568.43 621.42,-574.43 615.42,-574.43"/>
<text xml:space="preserve" text-anchor="middle" x="528.96" y="-554.39" font-family="Helvetica,sans-Serif" font-size="12.00" fill="#7f1d1d">Excluded n = 63</text>
<text xml:space="preserve" text-anchor="middle" x="528.96" y="-540.14" font-family="Helvetica,sans-Serif" font-size="12.00" fill="#7f1d1d">Missing or invalid FOF_status</text>
<text xml:space="preserve" text-anchor="middle" x="528.96" y="-525.89" font-family="Helvetica,sans-Serif" font-size="12.00" fill="#7f1d1d">(11.8% of N_VALID_ID)</text>
</g>
<!-- n2&#45;&gt;e1 -->
<g id="edge9" class="edge">
<title>n2&#45;&gt;e1</title>
<path fill="none" stroke="#374151" stroke-width="1.1" d="M406.11,-537C414.14,-537 422.14,-537 429.99,-537"/>
</g>
<!-- n2&#45;&gt;e1 -->
<!-- n3 -->
<g id="node6" class="node">
<title>n3</title>
<path fill="#eef2ff" stroke="#4b5563" stroke-width="1.1" d="M388.42,-460.15C388.42,-460.15 155.5,-460.15 155.5,-460.15 149.5,-460.15 143.5,-454.15 143.5,-448.15 143.5,-448.15 143.5,-426.37 143.5,-426.37 143.5,-420.37 149.5,-414.37 155.5,-414.37 155.5,-414.37 388.42,-414.37 388.42,-414.37 394.42,-414.37 400.42,-420.37 400.42,-426.37 400.42,-426.37 400.42,-448.15 400.42,-448.15 400.42,-454.15 394.42,-460.15 388.42,-460.15"/>
<text xml:space="preserve" text-anchor="middle" x="271.96" y="-440.11" font-family="Helvetica,sans-Serif" font-size="12.00">N = 472 with valid baseline FOF_status</text>
<text xml:space="preserve" text-anchor="middle" x="271.96" y="-425.86" font-family="Helvetica,sans-Serif" font-size="12.00">(88.2% of N_VALID_ID)</text>
</g>
<!-- n2&#45;&gt;n3 -->
<g id="edge2" class="edge">
<title>n2&#45;&gt;n3</title>
<path fill="none" stroke="#374151" stroke-width="1.1" d="M271.96,-521.16C271.96,-521.16 271.96,-469.63 271.96,-469.63"/>
<polygon fill="#374151" stroke="#374151" stroke-width="1.1" points="274.59,-469.63 271.96,-462.13 269.34,-469.63 274.59,-469.63"/>
</g>
<!-- e2 -->
<g id="node7" class="node">
<title>e2</title>
<path fill="#fff1f2" stroke="#b91c1c" stroke-width="1.1" d="M682.05,-474.4C682.05,-474.4 437.88,-474.4 437.88,-474.4 431.88,-474.4 425.88,-468.4 425.88,-462.4 425.88,-462.4 425.88,-412.12 425.88,-412.12 425.88,-406.12 431.88,-400.12 437.88,-400.12 437.88,-400.12 682.05,-400.12 682.05,-400.12 688.05,-400.12 694.05,-406.12 694.05,-412.12 694.05,-412.12 694.05,-462.4 694.05,-462.4 694.05,-468.4 688.05,-474.4 682.05,-474.4"/>
<text xml:space="preserve" text-anchor="middle" x="559.96" y="-454.36" font-family="Helvetica,sans-Serif" font-size="12.00" fill="#7f1d1d">Excluded n = 0</text>
<text xml:space="preserve" text-anchor="middle" x="559.96" y="-440.11" font-family="Helvetica,sans-Serif" font-size="12.00" fill="#7f1d1d">Not eligible for declared LONG structure</text>
<text xml:space="preserve" text-anchor="middle" x="559.96" y="-425.86" font-family="Helvetica,sans-Serif" font-size="12.00" fill="#7f1d1d">Time missing/invalid in LONG branch = 0</text>
<text xml:space="preserve" text-anchor="middle" x="559.96" y="-411.61" font-family="Helvetica,sans-Serif" font-size="12.00" fill="#7f1d1d">(0.0% of N_WITH_FOF)</text>
</g>
<!-- n3&#45;&gt;e2 -->
<g id="edge10" class="edge">
<title>n3&#45;&gt;e2</title>
<path fill="none" stroke="#374151" stroke-width="1.1" d="M400.8,-430C409.03,-430 417.34,-430 425.6,-430"/>
</g>
<!-- n3&#45;&gt;e2 -->
<!-- n4 -->
<g id="node8" class="node">
<title>n4</title>
<path fill="#eef2ff" stroke="#4b5563" stroke-width="1.1" d="M380.54,-353C380.54,-353 163.38,-353 163.38,-353 157.38,-353 151.38,-347 151.38,-341 151.38,-341 151.38,-319.22 151.38,-319.22 151.38,-313.22 157.38,-307.22 163.38,-307.22 163.38,-307.22 380.54,-307.22 380.54,-307.22 386.54,-307.22 392.54,-313.22 392.54,-319.22 392.54,-319.22 392.54,-341 392.54,-341 392.54,-347 386.54,-353 380.54,-353"/>
<text xml:space="preserve" text-anchor="middle" x="271.96" y="-332.96" font-family="Helvetica,sans-Serif" font-size="12.00">N = 472 branch&#45;eligible participants</text>
<text xml:space="preserve" text-anchor="middle" x="271.96" y="-318.71" font-family="Helvetica,sans-Serif" font-size="12.00">(100.0% of N_WITH_FOF)</text>
</g>
<!-- n3&#45;&gt;n4 -->
<g id="edge3" class="edge">
<title>n3&#45;&gt;n4</title>
<path fill="none" stroke="#374151" stroke-width="1.1" d="M271.96,-414.01C271.96,-414.01 271.96,-362.48 271.96,-362.48"/>
<polygon fill="#374151" stroke="#374151" stroke-width="1.1" points="274.59,-362.48 271.96,-354.98 269.34,-362.48 274.59,-362.48"/>
</g>
<!-- e3 -->
<g id="node9" class="node">
<title>e3</title>
<path fill="#fff1f2" stroke="#b91c1c" stroke-width="1.1" d="M730.17,-360.12C730.17,-360.12 429.75,-360.12 429.75,-360.12 423.75,-360.12 417.75,-354.12 417.75,-348.12 417.75,-348.12 417.75,-312.09 417.75,-312.09 417.75,-306.09 423.75,-300.09 429.75,-300.09 429.75,-300.09 730.17,-300.09 730.17,-300.09 736.17,-300.09 742.17,-306.09 742.17,-312.09 742.17,-312.09 742.17,-348.12 742.17,-348.12 742.17,-354.12 736.17,-360.12 730.17,-360.12"/>
<text xml:space="preserve" text-anchor="middle" x="579.96" y="-340.08" font-family="Helvetica,sans-Serif" font-size="12.00" fill="#7f1d1d">Excluded n = 232</text>
<text xml:space="preserve" text-anchor="middle" x="579.96" y="-325.83" font-family="Helvetica,sans-Serif" font-size="12.00" fill="#7f1d1d">Missing required locomotor_capacity observations</text>
<text xml:space="preserve" text-anchor="middle" x="579.96" y="-311.58" font-family="Helvetica,sans-Serif" font-size="12.00" fill="#7f1d1d">(49.2% of N_BRANCH_ELIGIBLE)</text>
</g>
<!-- n4&#45;&gt;e3 -->
<g id="edge11" class="edge">
<title>n4&#45;&gt;e3</title>
<path fill="none" stroke="#374151" stroke-width="1.1" d="M392.81,-322C400.9,-322 409.11,-322 417.36,-322"/>
</g>
<!-- n4&#45;&gt;e3 -->
<!-- n5 -->
<g id="node10" class="node">
<title>n5</title>
<path fill="#eef2ff" stroke="#4b5563" stroke-width="1.1" d="M395.54,-252.97C395.54,-252.97 148.38,-252.97 148.38,-252.97 142.38,-252.97 136.37,-246.97 136.37,-240.97 136.37,-240.97 136.37,-219.19 136.37,-219.19 136.37,-213.19 142.37,-207.19 148.37,-207.19 148.37,-207.19 395.54,-207.19 395.54,-207.19 401.54,-207.19 407.54,-213.19 407.54,-219.19 407.54,-219.19 407.54,-240.97 407.54,-240.97 407.54,-246.97 401.54,-252.97 395.54,-252.97"/>
<text xml:space="preserve" text-anchor="middle" x="271.96" y="-232.93" font-family="Helvetica,sans-Serif" font-size="12.00">N = 240 with complete primary outcome</text>
<text xml:space="preserve" text-anchor="middle" x="271.96" y="-218.68" font-family="Helvetica,sans-Serif" font-size="12.00">(50.8% of N_BRANCH_ELIGIBLE)</text>
</g>
<!-- n4&#45;&gt;n5 -->
<g id="edge4" class="edge">
<title>n4&#45;&gt;n5</title>
<path fill="none" stroke="#374151" stroke-width="1.1" d="M271.96,-306.9C271.96,-306.9 271.96,-262.66 271.96,-262.66"/>
<polygon fill="#374151" stroke="#374151" stroke-width="1.1" points="274.59,-262.66 271.96,-255.16 269.34,-262.66 274.59,-262.66"/>
</g>
<!-- e4 -->
<g id="node11" class="node">
<title>e4</title>
<path fill="#fff1f2" stroke="#b91c1c" stroke-width="1.1" d="M653.05,-260.09C653.05,-260.09 444.88,-260.09 444.88,-260.09 438.88,-260.09 432.88,-254.09 432.88,-248.09 432.88,-248.09 432.88,-212.06 432.88,-212.06 432.88,-206.06 438.88,-200.06 444.88,-200.06 444.88,-200.06 653.05,-200.06 653.05,-200.06 659.05,-200.06 665.05,-206.06 665.05,-212.06 665.05,-212.06 665.05,-248.09 665.05,-248.09 665.05,-254.09 659.05,-260.09 653.05,-260.09"/>
<text xml:space="preserve" text-anchor="middle" x="548.96" y="-240.05" font-family="Helvetica,sans-Serif" font-size="12.00" fill="#7f1d1d">Excluded n = 10</text>
<text xml:space="preserve" text-anchor="middle" x="548.96" y="-225.8" font-family="Helvetica,sans-Serif" font-size="12.00" fill="#7f1d1d">Missing age, sex, or BMI</text>
<text xml:space="preserve" text-anchor="middle" x="548.96" y="-211.55" font-family="Helvetica,sans-Serif" font-size="12.00" fill="#7f1d1d">(4.2% of N_OUTCOME_COMPLETE)</text>
</g>
<!-- n5&#45;&gt;e4 -->
<g id="edge12" class="edge">
<title>n5&#45;&gt;e4</title>
<path fill="none" stroke="#374151" stroke-width="1.1" d="M408.03,-238C416.23,-238 424.46,-238 432.57,-238"/>
</g>
<!-- n5&#45;&gt;e4 -->
<!-- n6 -->
<g id="node12" class="node">
<title>n6</title>
<path fill="#eef2ff" stroke="#4b5563" stroke-width="1.1" d="M379.79,-160.06C379.79,-160.06 164.12,-160.06 164.12,-160.06 158.12,-160.06 152.12,-154.06 152.12,-148.06 152.12,-148.06 152.12,-112.03 152.12,-112.03 152.12,-106.03 158.12,-100.03 164.12,-100.03 164.12,-100.03 379.79,-100.03 379.79,-100.03 385.79,-100.03 391.79,-106.03 391.79,-112.03 391.79,-112.03 391.79,-148.06 391.79,-148.06 391.79,-154.06 385.79,-160.06 379.79,-160.06"/>
<text xml:space="preserve" text-anchor="middle" x="271.96" y="-140.02" font-family="Helvetica,sans-Serif" font-size="12.00">Final eligible analytic cohort</text>
<text xml:space="preserve" text-anchor="middle" x="271.96" y="-125.77" font-family="Helvetica,sans-Serif" font-size="12.00">N = 230</text>
<text xml:space="preserve" text-anchor="middle" x="271.96" y="-111.52" font-family="Helvetica,sans-Serif" font-size="12.00">(95.8% of N_OUTCOME_COMPLETE)</text>
</g>
<!-- n5&#45;&gt;n6 -->
<g id="edge5" class="edge">
<title>n5&#45;&gt;n6</title>
<path fill="none" stroke="#374151" stroke-width="1.1" d="M271.96,-206.87C271.96,-206.87 271.96,-169.49 271.96,-169.49"/>
<polygon fill="#374151" stroke="#374151" stroke-width="1.1" points="274.59,-169.49 271.96,-161.99 269.34,-169.49 274.59,-169.49"/>
</g>
<!-- g1 -->
<g id="node13" class="node">
<title>g1</title>
<path fill="#ecfdf5" stroke="#047857" stroke-width="1.1" d="M247.92,-60.03C247.92,-60.03 48,-60.03 48,-60.03 42,-60.03 36,-54.03 36,-48.03 36,-48.03 36,-12 36,-12 36,-6 42,0 48,0 48,0 247.92,0 247.92,0 253.92,0 259.92,-6 259.92,-12 259.92,-12 259.92,-48.03 259.92,-48.03 259.92,-54.03 253.92,-60.03 247.92,-60.03"/>
<text xml:space="preserve" text-anchor="middle" x="147.96" y="-39.99" font-family="Helvetica,sans-Serif" font-size="12.00" fill="#064e3b">FOF: Yes</text>
<text xml:space="preserve" text-anchor="middle" x="147.96" y="-25.74" font-family="Helvetica,sans-Serif" font-size="12.00" fill="#064e3b">n = 161</text>
<text xml:space="preserve" text-anchor="middle" x="147.96" y="-11.49" font-family="Helvetica,sans-Serif" font-size="12.00" fill="#064e3b">(70.0% of N_ANALYTIC_PRIMARY)</text>
</g>
<!-- n6&#45;&gt;g1 -->
<g id="edge6" class="edge">
<title>n6&#45;&gt;g1</title>
<path fill="none" stroke="#374151" stroke-width="1.1" d="M206.02,-99.49C206.02,-99.49 206.02,-69.55 206.02,-69.55"/>
<polygon fill="#374151" stroke="#374151" stroke-width="1.1" points="208.65,-69.55 206.02,-62.05 203.4,-69.55 208.65,-69.55"/>
</g>
<!-- g2 -->
<g id="node14" class="node">
<title>g2</title>
<path fill="#ecfdf5" stroke="#047857" stroke-width="1.1" d="M496.92,-60.03C496.92,-60.03 297,-60.03 297,-60.03 291,-60.03 285,-54.03 285,-48.03 285,-48.03 285,-12 285,-12 285,-6 291,0 297,0 297,0 496.92,0 496.92,0 502.92,0 508.92,-6 508.92,-12 508.92,-12 508.92,-48.03 508.92,-48.03 508.92,-54.03 502.92,-60.03 496.92,-60.03"/>
<text xml:space="preserve" text-anchor="middle" x="396.96" y="-39.99" font-family="Helvetica,sans-Serif" font-size="12.00" fill="#064e3b">FOF: No</text>
<text xml:space="preserve" text-anchor="middle" x="396.96" y="-25.74" font-family="Helvetica,sans-Serif" font-size="12.00" fill="#064e3b">n = 69</text>
<text xml:space="preserve" text-anchor="middle" x="396.96" y="-11.49" font-family="Helvetica,sans-Serif" font-size="12.00" fill="#064e3b">(30.0% of N_ANALYTIC_PRIMARY)</text>
</g>
<!-- n6&#45;&gt;g2 -->
<g id="edge7" class="edge">
<title>n6&#45;&gt;g2</title>
<path fill="none" stroke="#374151" stroke-width="1.1" d="M338.4,-99.49C338.4,-99.49 338.4,-69.55 338.4,-69.55"/>
<polygon fill="#374151" stroke="#374151" stroke-width="1.1" points="341.02,-69.55 338.4,-62.05 335.77,-69.55 341.02,-69.55"/>
</g>
<!-- g1&#45;&gt;g2 -->
</g>
</svg>
