<?xml version="1.0" encoding="UTF-8" standalone="no"?>
<!DOCTYPE svg PUBLIC "-//W3C//DTD SVG 1.1//EN"
 "http://www.w3.org/Graphics/SVG/1.1/DTD/svg11.dtd">
<!-- Generated by graphviz version 15.0.0 (0)
 -->
<!-- Title: k50_figure1_wide_long_locomotor_capacity Pages: 1 -->
<svg width="482pt" height="140pt"
 viewBox="0.00 0.00 482.00 140.00" xmlns="http://www.w3.org/2000/svg" xmlns:xlink="http://www.w3.org/1999/xlink">
<g id="graph0" class="graph" transform="scale(0.356457 0.356457) rotate(0) translate(12.96 380.56)">
<title>k50_figure1_wide_long_locomotor_capacity</title>
<polygon fill="white" stroke="none" points="-12.96,12.96 -12.96,-380.56 1339.24,-380.56 1339.24,12.96 -12.96,12.96"/>
<!-- source -->
<g id="node1" class="node">
<title>source</title>
<path fill="#eef3f7" stroke="#607080" stroke-width="1.2" d="M680.9,-367.6C680.9,-367.6 421.25,-367.6 421.25,-367.6 415.25,-367.6 409.25,-361.6 409.25,-355.6 409.25,-355.6 409.25,-341.08 409.25,-341.08 409.25,-335.08 415.25,-329.08 421.25,-329.08 421.25,-329.08 680.9,-329.08 680.9,-329.08 686.9,-329.08 692.9,-335.08 692.9,-341.08 692.9,-341.08 692.9,-355.6 692.9,-355.6 692.9,-361.6 686.9,-367.6 680.9,-367.6"/>
<text xml:space="preserve" text-anchor="middle" x="551.08" y="-351.39" font-family="Helvetica,sans-Serif" font-size="11.00">Participants with locomotor&#45;capacity source data</text>
<text xml:space="preserve" text-anchor="middle" x="551.08" y="-337.89" font-family="Helvetica,sans-Serif" font-size="11.00">N = 535</text>
</g>
<!-- valid_fof -->
<g id="node2" class="node">
<title>valid_fof</title>
<path fill="#e7eef5" stroke="#607080" stroke-width="1.2" d="M641.15,-292.08C641.15,-292.08 461,-292.08 461,-292.08 455,-292.08 449,-286.08 449,-280.08 449,-280.08 449,-265.56 449,-265.56 449,-259.56 455,-253.56 461,-253.56 461,-253.56 641.15,-253.56 641.15,-253.56 647.15,-253.56 653.15,-259.56 653.15,-265.56 653.15,-265.56 653.15,-280.08 653.15,-280.08 653.15,-286.08 647.15,-292.08 641.15,-292.08"/>
<text xml:space="preserve" text-anchor="middle" x="551.08" y="-275.87" font-family="Helvetica,sans-Serif" font-size="11.00">Valid baseline fear&#45;of&#45;falling status</text>
<text xml:space="preserve" text-anchor="middle" x="551.08" y="-262.37" font-family="Helvetica,sans-Serif" font-size="11.00">n = 472</text>
</g>
<!-- source&#45;&gt;valid_fof -->
<g id="edge1" class="edge">
<title>source&#45;&gt;valid_fof</title>
<path fill="none" stroke="#6c7885" stroke-width="1.1" d="M551.08,-328.79C551.08,-320.58 551.08,-310.75 551.08,-301.69"/>
<polygon fill="#6c7885" stroke="#6c7885" stroke-width="1.1" points="553.7,-301.79 551.08,-294.29 548.45,-301.79 553.7,-301.79"/>
</g>
<!-- baseline_groups -->
<g id="node3" class="node">
<title>baseline_groups</title>
<path fill="#f7f9fb" stroke="#607080" stroke-width="1.2" d="M632.15,-216.56C632.15,-216.56 470,-216.56 470,-216.56 464,-216.56 458,-210.56 458,-204.56 458,-204.56 458,-190.04 458,-190.04 458,-184.04 464,-178.04 470,-178.04 470,-178.04 632.15,-178.04 632.15,-178.04 638.15,-178.04 644.15,-184.04 644.15,-190.04 644.15,-190.04 644.15,-204.56 644.15,-204.56 644.15,-210.56 638.15,-216.56 632.15,-216.56"/>
<text xml:space="preserve" text-anchor="middle" x="551.08" y="-200.35" font-family="Helvetica,sans-Serif" font-size="11.00">Fear of falling present, n = 328</text>
<text xml:space="preserve" text-anchor="middle" x="551.08" y="-186.85" font-family="Helvetica,sans-Serif" font-size="11.00">Fear of falling absent, n = 144</text>
</g>
<!-- valid_fof&#45;&gt;baseline_groups -->
<g id="edge2" class="edge">
<title>valid_fof&#45;&gt;baseline_groups</title>
<path fill="none" stroke="#6c7885" stroke-width="1.1" d="M551.08,-253.27C551.08,-245.06 551.08,-235.23 551.08,-226.17"/>
<polygon fill="#6c7885" stroke="#6c7885" stroke-width="1.1" points="553.7,-226.27 551.08,-218.77 548.45,-226.27 553.7,-226.27"/>
</g>
<!-- wide_branch -->
<g id="node4" class="node">
<title>wide_branch</title>
<path fill="#dce9f3" stroke="#607080" stroke-width="1.2" d="M505.27,-141.04C505.27,-141.04 274.88,-141.04 274.88,-141.04 268.88,-141.04 262.88,-135.04 262.88,-129.04 262.88,-129.04 262.88,-101.02 262.88,-101.02 262.88,-95.02 268.88,-89.02 274.88,-89.02 274.88,-89.02 505.27,-89.02 505.27,-89.02 511.27,-89.02 517.27,-95.02 517.27,-101.02 517.27,-101.02 517.27,-129.04 517.27,-129.04 517.27,-135.04 511.27,-141.04 505.27,-141.04"/>
<text xml:space="preserve" text-anchor="middle" x="390.07" y="-124.83" font-family="Helvetica,sans-Serif" font-size="11.00">Baseline&#45;adjusted 12&#45;month analysis</text>
<text xml:space="preserve" text-anchor="middle" x="390.07" y="-111.33" font-family="Helvetica,sans-Serif" font-size="11.00">Participants in locked ANCOVA model frame</text>
<text xml:space="preserve" text-anchor="middle" x="390.07" y="-97.83" font-family="Helvetica,sans-Serif" font-size="11.00">n = 230</text>
</g>
<!-- baseline_groups&#45;&gt;wide_branch -->
<g id="edge3" class="edge">
<title>baseline_groups&#45;&gt;wide_branch</title>
<path fill="none" stroke="#6c7885" stroke-width="1.1" d="M513.33,-177.48C494.29,-167.99 470.76,-156.26 449.38,-145.6"/>
<polygon fill="#6c7885" stroke="#6c7885" stroke-width="1.1" points="450.67,-143.31 442.79,-142.31 448.33,-148.01 450.67,-143.31"/>
</g>
<!-- long_branch -->
<g id="node7" class="node">
<title>long_branch</title>
<path fill="#dce9f3" stroke="#607080" stroke-width="1.2" d="M960.9,-141.04C960.9,-141.04 659.25,-141.04 659.25,-141.04 653.25,-141.04 647.25,-135.04 647.25,-129.04 647.25,-129.04 647.25,-101.02 647.25,-101.02 647.25,-95.02 653.25,-89.02 659.25,-89.02 659.25,-89.02 960.9,-89.02 960.9,-89.02 966.9,-89.02 972.9,-95.02 972.9,-101.02 972.9,-101.02 972.9,-129.04 972.9,-129.04 972.9,-135.04 966.9,-141.04 960.9,-141.04"/>
<text xml:space="preserve" text-anchor="middle" x="810.08" y="-124.83" font-family="Helvetica,sans-Serif" font-size="11.00">Repeated&#45;measures analysis</text>
<text xml:space="preserve" text-anchor="middle" x="810.08" y="-111.33" font-family="Helvetica,sans-Serif" font-size="11.00">Unique participants in locked mixed&#45;effects model frame</text>
<text xml:space="preserve" text-anchor="middle" x="810.08" y="-97.83" font-family="Helvetica,sans-Serif" font-size="11.00">n = 400</text>
</g>
<!-- baseline_groups&#45;&gt;long_branch -->
<g id="edge4" class="edge">
<title>baseline_groups&#45;&gt;long_branch</title>
<path fill="none" stroke="#6c7885" stroke-width="1.1" d="M611.8,-177.48C643.77,-167.57 683.63,-155.22 719.2,-144.19"/>
<polygon fill="#6c7885" stroke="#6c7885" stroke-width="1.1" points="719.69,-146.79 726.08,-142.06 718.14,-141.77 719.69,-146.79"/>
</g>
<!-- wide_groups -->
<g id="node5" class="node">
<title>wide_groups</title>
<path fill="#eff5fa" stroke="#607080" stroke-width="1.2" d="M174.15,-45.27C174.15,-45.27 12,-45.27 12,-45.27 6,-45.27 0,-39.27 0,-33.27 0,-33.27 0,-18.75 0,-18.75 0,-12.75 6,-6.75 12,-6.75 12,-6.75 174.15,-6.75 174.15,-6.75 180.15,-6.75 186.15,-12.75 186.15,-18.75 186.15,-18.75 186.15,-33.27 186.15,-33.27 186.15,-39.27 180.15,-45.27 174.15,-45.27"/>
<text xml:space="preserve" text-anchor="middle" x="93.07" y="-29.06" font-family="Helvetica,sans-Serif" font-size="11.00">Fear of falling present, n = 161</text>
<text xml:space="preserve" text-anchor="middle" x="93.07" y="-15.56" font-family="Helvetica,sans-Serif" font-size="11.00">Fear of falling absent, n = 69</text>
</g>
<!-- wide_branch&#45;&gt;wide_groups -->
<g id="edge5" class="edge">
<title>wide_branch&#45;&gt;wide_groups</title>
<path fill="none" stroke="#6c7885" stroke-width="1.1" d="M302.97,-88.51C259.35,-75.73 207.14,-60.43 165.71,-48.29"/>
<polygon fill="#6c7885" stroke="#6c7885" stroke-width="1.1" points="166.57,-45.81 158.64,-46.22 165.1,-50.85 166.57,-45.81"/>
</g>
<!-- wide_excl -->
<g id="node6" class="node">
<title>wide_excl</title>
<path fill="#f7f7f7" stroke="#8a8a8a" stroke-width="1.2" d="M549.9,-52.02C549.9,-52.02 230.25,-52.02 230.25,-52.02 224.25,-52.02 218.25,-46.02 218.25,-40.02 218.25,-40.02 218.25,-12 218.25,-12 218.25,-6 224.25,0 230.25,0 230.25,0 549.9,0 549.9,0 555.9,0 561.9,-6 561.9,-12 561.9,-12 561.9,-40.02 561.9,-40.02 561.9,-46.02 555.9,-52.02 549.9,-52.02"/>
<text xml:space="preserve" text-anchor="middle" x="390.07" y="-35.81" font-family="Helvetica,sans-Serif" font-size="11.00">Required for WIDE branch:</text>
<text xml:space="preserve" text-anchor="middle" x="390.07" y="-22.31" font-family="Helvetica,sans-Serif" font-size="11.00">complete baseline and 12&#45;month locomotor&#45;capacity scores</text>
<text xml:space="preserve" text-anchor="middle" x="390.07" y="-8.81" font-family="Helvetica,sans-Serif" font-size="11.00">and required model covariates</text>
</g>
<!-- wide_branch&#45;&gt;wide_excl -->
<g id="edge6" class="edge">
<title>wide_branch&#45;&gt;wide_excl</title>
<path fill="none" stroke="#6c7885" stroke-width="1.1" stroke-dasharray="5,2" d="M390.07,-88.86C390.07,-77.42 390.07,-63.9 390.07,-52.42"/>
</g>
<!-- long_groups -->
<g id="node8" class="node">
<title>long_groups</title>
<path fill="#eff5fa" stroke="#607080" stroke-width="1.2" d="M768.15,-45.27C768.15,-45.27 606,-45.27 606,-45.27 600,-45.27 594,-39.27 594,-33.27 594,-33.27 594,-18.75 594,-18.75 594,-12.75 600,-6.75 606,-6.75 606,-6.75 768.15,-6.75 768.15,-6.75 774.15,-6.75 780.15,-12.75 780.15,-18.75 780.15,-18.75 780.15,-33.27 780.15,-33.27 780.15,-39.27 774.15,-45.27 768.15,-45.27"/>
<text xml:space="preserve" text-anchor="middle" x="687.08" y="-29.06" font-family="Helvetica,sans-Serif" font-size="11.00">Fear of falling present, n = 276</text>
<text xml:space="preserve" text-anchor="middle" x="687.08" y="-15.56" font-family="Helvetica,sans-Serif" font-size="11.00">Fear of falling absent, n = 124</text>
</g>
<!-- long_branch&#45;&gt;long_groups -->
<g id="edge7" class="edge">
<title>long_branch&#45;&gt;long_groups</title>
<path fill="none" stroke="#6c7885" stroke-width="1.1" d="M774.17,-88.63C757.32,-76.71 737.35,-62.58 720.79,-50.86"/>
<polygon fill="#6c7885" stroke="#6c7885" stroke-width="1.1" points="722.44,-48.81 714.8,-46.63 719.41,-53.1 722.44,-48.81"/>
</g>
<!-- long_obs -->
<g id="node9" class="node">
<title>long_obs</title>
<path fill="#f7f9fb" stroke="#4f6c82" stroke-width="1.6" d="M991.78,-45.27C991.78,-45.27 824.38,-45.27 824.38,-45.27 818.38,-45.27 812.38,-39.27 812.38,-33.27 812.38,-33.27 812.38,-18.75 812.38,-18.75 812.38,-12.75 818.38,-6.75 824.38,-6.75 824.38,-6.75 991.78,-6.75 991.78,-6.75 997.78,-6.75 1003.78,-12.75 1003.78,-18.75 1003.78,-18.75 1003.78,-33.27 1003.78,-33.27 1003.78,-39.27 997.78,-45.27 991.78,-45.27"/>
<text xml:space="preserve" text-anchor="middle" x="908.08" y="-29.06" font-family="Helvetica,sans-Serif" font-size="11.00">Repeated observations included</text>
<text xml:space="preserve" text-anchor="middle" x="908.08" y="-15.56" font-family="Helvetica,sans-Serif" font-size="11.00">n = 630</text>
</g>
<!-- long_branch&#45;&gt;long_obs -->
<g id="edge8" class="edge">
<title>long_branch&#45;&gt;long_obs</title>
<path fill="none" stroke="#6c7885" stroke-width="1.1" d="M838.68,-88.63C851.77,-77.01 867.22,-63.29 880.21,-51.75"/>
<polygon fill="#6c7885" stroke="#6c7885" stroke-width="1.1" points="881.65,-53.99 885.51,-47.04 878.16,-50.06 881.65,-53.99"/>
</g>
<!-- long_excl -->
<g id="node10" class="node">
<title>long_excl</title>
<path fill="#f7f7f7" stroke="#8a8a8a" stroke-width="1.2" d="M1314.28,-52.02C1314.28,-52.02 1047.88,-52.02 1047.88,-52.02 1041.88,-52.02 1035.88,-46.02 1035.88,-40.02 1035.88,-40.02 1035.88,-12 1035.88,-12 1035.88,-6 1041.88,0 1047.88,0 1047.88,0 1314.28,0 1314.28,0 1320.28,0 1326.28,-6 1326.28,-12 1326.28,-12 1326.28,-40.02 1326.28,-40.02 1326.28,-46.02 1320.28,-52.02 1314.28,-52.02"/>
<text xml:space="preserve" text-anchor="middle" x="1181.08" y="-35.81" font-family="Helvetica,sans-Serif" font-size="11.00">Required for LONG branch:</text>
<text xml:space="preserve" text-anchor="middle" x="1181.08" y="-22.31" font-family="Helvetica,sans-Serif" font-size="11.00">eligible repeated locomotor&#45;capacity observations</text>
<text xml:space="preserve" text-anchor="middle" x="1181.08" y="-8.81" font-family="Helvetica,sans-Serif" font-size="11.00">and required model covariates</text>
</g>
<!-- long_branch&#45;&gt;long_excl -->
<g id="edge9" class="edge">
<title>long_branch&#45;&gt;long_excl</title>
<path fill="none" stroke="#6c7885" stroke-width="1.1" stroke-dasharray="5,2" d="M918.88,-88.51C967.09,-77.2 1023.7,-63.92 1071.95,-52.61"/>
</g>
</g>
</svg>
